<?xml version="1.0" encoding="UTF-8"?>
<svg id="Layer_1" data-name="Layer 1" xmlns="http://www.w3.org/2000/svg" xmlns:xlink="http://www.w3.org/1999/xlink" viewBox="0 0 61.14 65.8">
  <defs>
    <style>
      .cls-1 {
        fill: url(#linear-gradient);
      }

      .cls-1, .cls-2 {
        stroke-width: 0px;
      }

      .cls-2 {
        fill: #fcb49d;
      }
    </style>
    <linearGradient id="linear-gradient" x1="30.57" y1="24.98" x2="30.57" y2="55.64" gradientUnits="userSpaceOnUse">
      <stop offset="0" stop-color="#8ea0ff"/>
      <stop offset="1" stop-color="#e49ae2"/>
    </linearGradient>
  </defs>
  <path class="cls-2" d="M30.55,18.18c-4.87,0-8.84-3.96-8.84-8.84S25.68.51,30.55.51s8.84,3.96,8.84,8.84-3.96,8.84-8.84,8.84ZM30.55,5.43c-2.16,0-3.91,1.76-3.91,3.91s1.76,3.91,3.91,3.91,3.91-1.76,3.91-3.91-1.76-3.91-3.91-3.91Z"/>
  <path class="cls-1" d="M54.21,49.11c-3.49-1.16-7.32-.32-11.37,2.52-.41.29-.81.6-1.19.92-1.18,1.01-1.18,2.83.03,3.81h0c.93.76,2.26.72,3.17-.06.27-.23.54-.44.83-.64,2.7-1.9,5.06-2.53,6.99-1.88,1.46.48,2.51,1.66,2.51,2.67,0,1.02-.95,2.22-1.91,2.71-1.76.87-3.59.6-7.08-.2-4.79-1.09-8.54-2.11-10.63-2.71-.46-.13-.58-.73-.2-1.03,4.31-3.41,8.31-7.35,10.43-10.41,1.63-2.36,6.56-10.68,1.31-18.57-1.66-2.49-5.65-4.88-9.23-4.41-.98.13-3.87.69-6.11,2.8-.42.4-1.07.38-1.49-.02-1.5-1.45-3.91-3.07-7.22-3.07h-.11c-3.77.04-7.37,2.26-8.97,5.51-1.39,2.81-.89,5.52-.67,6.68.97,5.25,4.78,8.76,7.65,10.73,1.17.8,2.77.39,3.43-.85l.08-.14c.58-1.08.23-2.41-.78-3.1-2.14-1.47-4.87-3.98-5.53-7.53-.16-.84-.42-2.26.25-3.61.79-1.6,2.69-2.74,4.61-2.76h.05c2.9,0,4.63,2.6,4.82,2.9.29.46.51.96.67,1.45.22.67.32,1.38.36,2.09.03.5.08.92.12,1.24,0,.16.01.34.03.53,0,0,0,0,0,0,0,1.46,1.1,2.64,2.46,2.64,1.28,0,2.32-1.06,2.43-2.41.07-.43.03-.82,0-1.14-.01-.46-.04-1.11-.13-1.88.01-.94.17-2.03.72-2.91,1.15-1.83,2.99-2.27,4.03-2.27,2.57,0,3.68,1.08,4.47,2.26,3.53,5.31-.07,11.33-1.26,13.04-2.1,3.03-7.23,8.01-12.74,11.81-.28.19-.63.24-.96.15-4.58-1.36-8.63-2.35-12.81-2.65-.34-.02-.69-.03-1.03-.03-1.16.01-3.56.13-6.56.8-3.13.69-5.57,2.35-6.28,3.55-1.25,2.15-1.16,4.99.22,6.9.81,1.12,3.13,2.32,4.98,2.56,1.1.15,2.12.2,3.04.2,2.6,0,4.31-.43,4.33-.44,7.77-2.02,12.39-3.95,14.38-4.89.64-.3,1.36-.35,2.03-.14.51.16,1.04.32,1.57.49l.31.1c.21.07,5.16,1.61,12.86,3.36,3.37.77,6.85,1.56,10.37-.2,2.54-1.27,5.25-3.79,5.22-7.09-.04-4.12-4.08-6.57-6.46-7.36ZM19.68,58.03c-1.93.64-3.58,1.3-6.99,2.05-.48.1-2.65.57-5.35.5-.76-.02-1.36-.17-1.9-.74-.49-.49-.29-1.28.09-1.67.58-.52,1.48-.92,3.17-1.3,2.66-.59,4.76-.67,5.55-.68.2,0,.81,0,1.02.02,1.58.11,2.74.34,4.34.66.6.12.66.96.08,1.15Z"/>
</svg>